<svg xmlns="http://www.w3.org/2000/svg" viewBox="0 0 512 512">
  <rect width="512" height="512" rx="96" fill="#16A34A"/>
  <g transform="translate(256,256)">
    <!-- 접시 (원형) -->
    <ellipse cx="0" cy="20" rx="155" ry="145" fill="#FFFFFF" opacity="0.95"/>
    <ellipse cx="0" cy="20" rx="120" ry="112" fill="none" stroke="#16A34A" stroke-width="3" opacity="0.25"/>
    <!-- 포크 (왼쪽) -->
    <g transform="translate(-90,-140) rotate(25, 90, 140)" fill="#FFFFFF">
      <rect x="82" y="-30" width="5" height="80" rx="2"/>
      <rect x="72" y="-30" width="5" height="55" rx="2"/>
      <rect x="92" y="-30" width="5" height="55" rx="2"/>
      <rect x="70" y="22" width="29" height="8" rx="4"/>
      <rect x="82" y="30" width="5" height="50" rx="2"/>
    </g>
    <!-- 나이프 (오른쪽) -->
    <g transform="translate(90,-140) rotate(-25, -90, 140)" fill="#FFFFFF">
      <path d="M-8,-30 Q-8,-30 -4,-30 L2,-30 Q10,-10 10,10 L2,25 -2,25 -2,10 Q-8,0 -8,-30Z"/>
      <rect x="-2" y="25" width="5" height="50" rx="2"/>
    </g>
    <!-- 잎사귀 (건강/신선함) -->
    <g transform="translate(0,-15)">
      <path d="M0,-10 Q25,-45 10,-70 Q-5,-50 0,-10Z" fill="#22C55E" opacity="0.8"/>
      <path d="M0,-10 Q-20,-50 -5,-72 Q10,-55 0,-10Z" fill="#22C55E" opacity="0.6"/>
      <line x1="0" y1="-10" x2="5" y2="-45" stroke="#16A34A" stroke-width="1.5" opacity="0.5"/>
      <line x1="0" y1="-10" x2="-8" y2="-48" stroke="#16A34A" stroke-width="1.5" opacity="0.5"/>
    </g>
  </g>
</svg>
